<?xml version="1.0" standalone="no"?>
<!DOCTYPE svg PUBLIC "-//W3C//DTD SVG 20010904//EN"
 "http://www.w3.org/TR/2001/REC-SVG-20010904/DTD/svg10.dtd">
<svg version="1.0" xmlns="http://www.w3.org/2000/svg"
 width="200.000000pt" height="200.000000pt" viewBox="0 0 200.000000 200.000000"
 preserveAspectRatio="xMidYMid meet">

<g transform="translate(0.000000,200.000000) scale(0.100000,-0.100000)"
fill="#000000" stroke="none">
<path d="M560 1005 c0 -84 0 -85 25 -85 18 0 25 5 25 20 0 15 7 20 25 20 34 0
65 33 65 69 0 45 -23 61 -86 61 l-54 0 0 -85z m80 20 c0 -8 -7 -15 -15 -15 -8
0 -15 7 -15 15 0 8 7 15 15 15 8 0 15 -7 15 -15z"/>
<path d="M714 1075 c-7 -18 3 -35 22 -35 10 0 14 -12 14 -39 0 -31 -4 -40 -21
-44 -36 -10 -15 -32 37 -39 27 -4 55 -6 62 -3 17 6 15 45 -3 45 -11 0 -15 11
-15 39 0 25 5 41 15 45 8 3 15 15 15 26 0 18 -6 20 -60 20 -44 0 -62 -4 -66
-15z"/>
<path d="M862 1003 l3 -88 65 0 c58 0 65 2 65 20 0 16 -8 21 -37 23 -44 4 -51
19 -10 24 40 4 38 41 -3 47 -28 5 -28 5 10 10 31 5 40 10 40 26 0 18 -8 20
-68 23 l-68 3 3 -88z"/>
<path d="M1022 1003 c3 -86 3 -88 28 -88 20 0 26 6 28 28 2 19 9 27 22 27 13
0 20 -8 22 -27 2 -20 9 -28 23 -28 15 0 21 8 23 33 2 19 0 41 -4 50 -4 10 -6
27 -5 40 4 39 -16 52 -81 52 l-59 0 3 -87z m78 27 c0 -5 -4 -10 -10 -10 -5 0
-10 5 -10 10 0 6 5 10 10 10 6 0 10 -4 10 -10z"/>
</g>
</svg>
